<svg width="320" height="320" viewBox="0 0 320 320" xmlns="http://www.w3.org/2000/svg" role="img" aria-labelledby="title desc">
  <title>Customer portrait with warm palette</title>
  <desc>Vector illustration of a man on an amber gradient background</desc>
  <defs>
    <linearGradient id="bg3" x1="0" y1="1" x2="1" y2="0">
      <stop offset="0%" stop-color="#D97706"/>
      <stop offset="100%" stop-color="#F59E0B"/>
    </linearGradient>
  </defs>
  <rect width="320" height="320" rx="32" fill="url(#bg3)"/>
  <circle cx="160" cy="128" r="80" fill="#FFF6E6"/>
  <circle cx="160" cy="124" r="58" fill="#B45309"/>
  <circle cx="160" cy="118" r="52" fill="#FFFDF8"/>
  <path d="M160 98c-21 0-35 17-35 45 0 17 5 30 13 38 7 7 14 10 22 10s15-3 22-10c8-8 13-21 13-38 0-28-14-45-35-45z" fill="#B45309"/>
  <path d="M160 106c15 0 25 12 25 32 0 26-12 40-25 40s-25-14-25-40c0-20 10-32 25-32z" fill="#FFFDF8"/>
  <path d="M160 192c-35 0-64 17-80 46 22 18 51 28 80 28s58-10 80-28c-16-29-45-46-80-46z" fill="#B45309"/>
  <path d="M160 200c-30 0-55 13-68 34 16 12 38 20 68 20s52-8 68-20c-13-21-38-34-68-34z" fill="#FFFDF8"/>
</svg>
