<svg width="320" height="320" viewBox="0 0 320 320" xmlns="http://www.w3.org/2000/svg" role="img" aria-labelledby="title desc">
  <title>Smiling customer portrait</title>
  <desc>Vector illustration of a man on a blue gradient background</desc>
  <defs>
    <linearGradient id="bg" x1="0" y1="0" x2="1" y2="1">
      <stop offset="0%" stop-color="#0A1FA3"/>
      <stop offset="100%" stop-color="#1E55E0"/>
    </linearGradient>
  </defs>
  <rect width="320" height="320" rx="32" fill="url(#bg)"/>
  <circle cx="160" cy="128" r="80" fill="#E6F0FF"/>
  <circle cx="160" cy="124" r="58" fill="#1C3FAA"/>
  <circle cx="160" cy="118" r="52" fill="#F7FBFF"/>
  <path d="M160 96c-22 0-36 16-36 44 0 17 5 30 14 38 7 6 14 8 22 8s15-2 22-8c9-8 14-21 14-38 0-28-14-44-36-44z" fill="#0A1FA3"/>
  <path d="M160 104c16 0 26 12 26 32 0 26-14 38-26 38s-26-12-26-38c0-20 10-32 26-32z" fill="#F2F6FF"/>
  <path d="M160 190c-36 0-68 18-86 48 23 18 53 30 86 30s63-12 86-30c-18-30-50-48-86-48z" fill="#0A1FA3"/>
  <path d="M160 198c-30 0-56 14-70 36 18 13 40 22 70 22s52-9 70-22c-14-22-40-36-70-36z" fill="#F7FBFF"/>
</svg>
