<svg width="74" height="68" viewBox="0 0 74 68" fill="none" xmlns="http://www.w3.org/2000/svg">
    <path d="M13.0986 64.1847L2.44673 48.1565C2.32024 47.9671 2.23251 47.7545 2.1886 47.531C2.1447 47.3076 2.14549 47.0776 2.19093 46.8544C2.23637 46.6312 2.32555 46.4192 2.45335 46.2307C2.58114 46.0422 2.745 45.8808 2.93548 45.7559L9.66298 41.4434C10.0397 41.2022 10.4949 41.1155 10.9339 41.2011C11.3729 41.2868 11.7621 41.5383 12.0205 41.9034L22.888 57.7159C23.0158 57.9036 23.1054 58.1147 23.1515 58.3371C23.1976 58.5594 23.1993 58.7887 23.1565 59.0118C23.1138 59.2348 23.0274 59.4472 22.9024 59.6368C22.7774 59.8264 22.6162 59.9894 22.428 60.1165L15.4992 64.659C15.3107 64.7862 15.0988 64.8748 14.8759 64.9198C14.653 64.9648 14.4234 64.9653 14.2002 64.9212C13.9771 64.8771 13.7649 64.7893 13.5759 64.6629C13.3868 64.5365 13.2246 64.374 13.0986 64.1847Z" stroke="white" stroke-width="4.3125" stroke-linecap="round"/>
    <path d="M13.2136 43.5276L24.4261 36.4839C24.7854 36.2559 25.1876 36.1039 25.6079 36.0371C26.0281 35.9704 26.4576 35.9903 26.8699 36.0958C30.8517 37.1164 42.8261 40.4083 47.2393 41.9608C50.5599 43.1251 51.8968 46.4026 50.5599 48.5589C48.7486 51.4339 45.9886 51.1608 44.0049 50.6001L43.2143 50.3126L35.3655 46.9633" stroke="white" stroke-width="4.3125" stroke-linecap="round"/>
    <path d="M21.9105 56.2496L25.5761 54.1509L46.3193 59.9009C46.5321 59.9612 46.7555 59.9744 46.9739 59.9396C47.1924 59.9049 47.4007 59.823 47.5843 59.6996C50.4593 57.8309 62.9799 49.5509 69.1468 45.1953C69.6468 44.9178 70.0699 44.5205 70.3783 44.0389C70.6866 43.5574 70.8704 43.0068 70.9132 42.4366C70.956 41.8664 70.8563 41.2945 70.6233 40.7723C70.3902 40.2502 70.031 39.7942 69.578 39.4453C68.8605 38.799 67.9525 38.4034 66.9906 38.3178C66.0288 38.2323 65.0652 38.4615 64.2449 38.9709C62.0886 40.1784 56.0943 44.6346 56.0943 44.6346" stroke="white" stroke-width="4.3125" stroke-linecap="round"/>
    <path d="M53.9811 9.80377C53.3023 8.24009 52.1754 6.91263 50.7426 5.98901C49.3099 5.0654 47.6355 4.58705 45.9311 4.61439C38.6717 4.61439 38.3986 9.80377 38.3986 9.80377C38.3986 9.80377 37.3061 16.215 46.1899 16.8906C55.433 17.595 53.9811 23.9775 53.9811 23.9775C53.9811 23.9775 53.0467 29.5263 46.1899 29.8713C39.333 30.2163 37.2198 23.0288 37.2198 23.0288" stroke="white" stroke-width="4.3125"/>
    <path d="M45.9311 0V35.19" stroke="white" stroke-width="4.3125"/>
</svg>