
<svg width="66" height="66" viewBox="0 0 66 66" fill="none" xmlns="http://www.w3.org/2000/svg">
    <path d="M25.3191 23.8132H28.6378C29.1408 23.8132 29.5486 23.4054 29.5486 22.9024C29.5486 22.3995 29.1408 21.9917 28.6378 21.9917H26.2299V16.2652C26.2299 15.7623 25.8221 15.3545 25.3191 15.3545C24.8162 15.3545 24.4084 15.7623 24.4084 16.2652V22.9024C24.4084 23.4054 24.8162 23.8132 25.3191 23.8132Z" fill="white"/>
    <path d="M41.4863 23.774C41.8709 23.6579 42.134 23.3037 42.134 22.902V16.2648C42.134 15.7618 41.7264 15.354 41.2233 15.354C40.7202 15.354 40.3125 15.7618 40.3125 16.2648V19.8824L39.7786 19.0778C39.6098 18.8235 39.325 18.6706 39.0197 18.6706C38.7145 18.6706 38.4297 18.8235 38.2609 19.0778L37.727 19.8824V16.2648C37.727 15.7618 37.3193 15.354 36.8162 15.354C36.3131 15.354 35.9055 15.7618 35.9055 16.2648V22.902C35.9055 23.3037 36.1686 23.6579 36.5532 23.774C36.9381 23.8901 37.3532 23.7402 37.575 23.4055L39.0197 21.2284L40.4644 23.4055C40.6363 23.6646 40.9238 23.8128 41.2234 23.8128C41.3108 23.8128 41.3994 23.8002 41.4863 23.774Z" fill="white"/>
    <path d="M32.3544 15.3545C30.9373 15.3545 29.7843 16.5074 29.7843 17.9245V21.2432C29.7843 22.6603 30.9372 23.8133 32.3544 23.8133C33.7717 23.8133 34.9246 22.6603 34.9246 21.2432V17.9245C34.9245 16.5074 33.7716 15.3545 32.3544 15.3545ZM33.103 21.2431C33.103 21.6558 32.7671 21.9917 32.3543 21.9917C31.9416 21.9917 31.6057 21.6558 31.6057 21.2431V17.9245C31.6057 17.5118 31.9416 17.176 32.3543 17.176C32.7671 17.176 33.103 17.5118 33.103 17.9245V21.2431Z" fill="white"/>
    <path d="M45.4093 29.7014C45.9124 29.7014 46.32 29.2936 46.32 28.7906C46.32 28.2877 45.9124 27.8799 45.4093 27.8799H42.0906C41.5875 27.8799 41.1799 28.2877 41.1799 28.7906V35.4278C41.1799 35.9308 41.5875 36.3386 42.0906 36.3386H45.4093C45.9124 36.3386 46.32 35.9308 46.32 35.4278C46.32 34.9249 45.9124 34.5171 45.4093 34.5171H43.0014V33.0199H43.9626C44.4657 33.0199 44.8734 32.6122 44.8734 32.1092C44.8734 31.6062 44.4657 31.1984 43.9626 31.1984H43.0014V29.7013L45.4093 29.7014Z" fill="white"/>
    <path d="M33.5187 27.8799C33.0156 27.8799 32.608 28.2877 32.608 28.7906V35.4278C32.608 35.9308 33.0156 36.3386 33.5187 36.3386C34.0218 36.3386 34.4295 35.9308 34.4295 35.4278V28.7906C34.4295 28.2877 34.0218 27.8799 33.5187 27.8799Z" fill="white"/>
    <path d="M39.4315 29.7014C39.9346 29.7014 40.3423 29.2936 40.3423 28.7906C40.3423 28.2877 39.9346 27.8799 39.4315 27.8799C37.0995 27.8799 35.2022 29.7772 35.2022 32.1093C35.2022 34.4414 37.0995 36.3387 39.4315 36.3387C39.9346 36.3387 40.3423 35.9309 40.3423 35.428C40.3423 34.925 39.9346 34.5172 39.4315 34.5172C38.1037 34.5172 37.0237 33.4371 37.0237 32.1093C37.0237 30.7815 38.1039 29.7014 39.4315 29.7014Z" fill="white"/>
    <path d="M22.7923 27.8799H21.133C20.6301 27.8799 20.2223 28.2877 20.2223 28.7906V35.4278C20.2223 35.9308 20.6301 36.3386 21.133 36.3386C21.636 36.3386 22.0438 35.9308 22.0438 35.4278V33.0199H22.7923C24.2094 33.0199 25.3625 31.867 25.3625 30.4499C25.3625 29.0328 24.2094 27.8799 22.7923 27.8799ZM22.7923 31.1985H22.0438V29.7014H22.7923C23.2051 29.7014 23.541 30.0373 23.541 30.45C23.541 30.8628 23.2051 31.1985 22.7923 31.1985Z" fill="white"/>
    <path d="M29.1467 32.966C30.3125 32.7227 31.191 31.687 31.191 30.45C31.191 29.0329 30.0381 27.8799 28.6208 27.8799H26.9615C26.4586 27.8799 26.0508 28.2877 26.0508 28.7906V32.102C26.0508 32.1067 26.0508 32.1115 26.0508 32.1162V35.428C26.0508 35.9309 26.4586 36.3387 26.9615 36.3387C27.4645 36.3387 27.8723 35.9309 27.8723 35.428V34.2675L29.734 36.0804C30.0943 36.4314 30.6711 36.4238 31.0218 36.0633C31.3727 35.703 31.3651 35.1263 31.0047 34.7755L29.1467 32.966ZM27.8723 31.1987V29.7015H28.6208C29.0336 29.7015 29.3694 30.0374 29.3694 30.4501C29.3694 30.8629 29.0336 31.1987 28.6208 31.1987H27.8723Z" fill="white"/>
    <path d="M31.9904 63.4987L2.37709 39.5467C1.64421 38.954 2.06337 37.7692 3.00596 37.7692H11.1025C11.6548 37.7692 12.1025 37.3215 12.1025 36.7692V3C12.1025 2.44772 12.5502 2 13.1025 2H53.0718C53.624 2 54.0718 2.44772 54.0718 3V37.2054C54.0718 37.7733 54.5442 38.2273 55.1117 38.2046L62.9074 37.8927C63.8765 37.854 64.3278 39.079 63.5652 39.6782L33.2371 63.5075C32.8703 63.7956 32.353 63.792 31.9904 63.4987Z" stroke="white" stroke-width="4"/>
</svg>
