<svg width="66" height="66" viewBox="0 0 66 66" fill="none" xmlns="http://www.w3.org/2000/svg">
    <path fill-rule="evenodd" clip-rule="evenodd" d="M22.8461 17.4896C25.6501 17.4896 27.923 15.2034 27.923 12.3832C27.923 9.56304 25.6501 7.27686 22.8461 7.27686C20.0422 7.27686 17.7692 9.56304 17.7692 12.3832C17.7692 15.2034 20.0422 17.4896 22.8461 17.4896ZM22.8461 14.1704C23.8275 14.1704 24.623 13.3703 24.623 12.3832C24.623 11.3962 23.8275 10.596 22.8461 10.596C21.8647 10.596 21.0692 11.3962 21.0692 12.3832C21.0692 13.3703 21.8647 14.1704 22.8461 14.1704Z" fill="white"/>
    <path fill-rule="evenodd" clip-rule="evenodd" d="M10.5346 11.7447C10.5346 5.12845 16.18 0 22.8461 0C29.5124 0 35.1577 5.12845 35.1577 11.7447C35.1577 12.8449 35.0597 14.0511 34.8452 15.3216L43.1538 17.4108L62.8459 12.4592C63.6041 12.2685 64.4075 12.4399 65.0236 12.9237C65.6397 13.4076 65.9999 14.15 65.9999 14.9362V58.3404C65.9999 59.5119 65.2072 60.5331 64.077 60.8174L43.7694 65.9238C43.3652 66.0253 42.9423 66.0253 42.5382 65.9238L22.8461 60.972L3.15414 65.9238C2.39577 66.1144 1.59238 65.9431 0.976266 65.4592C0.360131 64.9754 0 64.2329 0 63.4467V20.0425C0 18.871 0.792761 17.8497 1.92278 17.5656L10.8471 15.3216C10.6327 14.0511 10.5346 12.8449 10.5346 11.7447ZM22.8461 4.34041C18.2967 4.34041 14.85 7.78522 14.85 11.7447C14.85 15.7812 16.5317 21.7619 21.3479 26.3022C22.1922 27.0983 23.5 27.0983 24.3443 26.3022C29.1605 21.7619 30.8423 15.7812 30.8423 11.7447C30.8423 7.78522 27.3956 4.34041 22.8461 4.34041ZM12.2075 20.243L5.65274 21.8912C5.31424 21.9763 5.07692 22.2807 5.07692 22.6298V59.1999C5.07692 59.6957 5.54326 60.0594 6.02417 59.9383L19.7318 56.4916C20.0703 56.4066 20.3077 56.1022 20.3077 55.7532V31.0976C16.2551 27.984 13.6883 24.0626 12.2075 20.243ZM25.3846 31.0976V55.7532C25.3846 56.1022 25.6219 56.4066 25.9603 56.4916L39.668 59.9383C40.149 60.0594 40.6153 59.6957 40.6153 59.1999V22.6298C40.6153 22.2807 40.378 21.9763 40.0396 21.8912L33.4848 20.243C32.0039 24.0626 29.4372 27.984 25.3846 31.0976ZM60.923 55.7532C60.923 56.1022 60.6857 56.4066 60.3473 56.4916L46.6396 59.9383C46.1586 60.0594 45.6923 59.6957 45.6923 59.1999V22.6298C45.6923 22.2807 45.9296 21.9764 46.268 21.8912L59.9757 18.4444C60.4567 18.3235 60.923 18.6871 60.923 19.183V55.7532Z" fill="white"/>
</svg>
