<svg width="84" height="55" viewBox="0 0 84 55" fill="none" xmlns="http://www.w3.org/2000/svg">
    <path d="M2.44293 2.44287H52.0858V46.2454H25.8043" stroke="white" stroke-width="4.88577" stroke-miterlimit="10" stroke-linecap="round" stroke-linejoin="round"/>
    <path d="M66.6864 52.0855C69.912 52.0855 72.5268 49.4707 72.5268 46.2451C72.5268 43.0196 69.912 40.4048 66.6864 40.4048C63.4609 40.4048 60.8461 43.0196 60.8461 46.2451C60.8461 49.4707 63.4609 52.0855 66.6864 52.0855Z" stroke="white" stroke-width="4.88577" stroke-miterlimit="10" stroke-linecap="round" stroke-linejoin="round"/>
    <path d="M19.964 52.0855C23.1895 52.0855 25.8043 49.4707 25.8043 46.2451C25.8043 43.0196 23.1895 40.4048 19.964 40.4048C16.7385 40.4048 14.1237 43.0196 14.1237 46.2451C14.1237 49.4707 16.7385 52.0855 19.964 52.0855Z" stroke="white" stroke-width="4.88577" stroke-miterlimit="10" stroke-linecap="round" stroke-linejoin="round"/>
    <path d="M52.0854 46.2454V14.1235H69.6065L81.2872 28.7244V46.2454H72.5266" stroke="white" stroke-width="4.88577" stroke-miterlimit="10" stroke-linecap="round" stroke-linejoin="round"/>
    <path d="M8.28329 14.1235H34.5648" stroke="white" stroke-width="4.88577" stroke-miterlimit="10" stroke-linecap="round" stroke-linejoin="round"/>
    <path d="M2.44287 25.8042H28.7244" stroke="white" stroke-width="4.88577" stroke-miterlimit="10" stroke-linecap="round" stroke-linejoin="round"/>
</svg>
