<svg width="57" height="66" viewBox="0 0 57 66" fill="none" xmlns="http://www.w3.org/2000/svg">
    <path d="M56.8226 15.4594L41.3633 0H0V66H56.8226V15.4594ZM42.7465 8.06233L48.7603 14.0761H42.7465V8.06233ZM52.0998 61.2772H4.72281V4.72281H38.0237V18.799H52.0998V61.2772Z" fill="white"/>
    <path d="M48.1414 25.7251H25.223V30.4479H48.1414V25.7251Z" fill="white"/>
    <path d="M12.877 37.5295L11.0211 35.6736L7.68149 39.013L12.877 44.2085L21.4595 35.6261L18.12 32.2866L12.877 37.5295Z" fill="white"/>
    <path d="M12.877 49.2942L11.0211 47.4382L7.68158 50.7777L12.877 55.9733L21.4596 47.3909L18.12 44.0513L12.877 49.2942Z" fill="white"/>
    <path d="M12.877 25.7659L11.0211 23.9099L7.68158 27.2494L12.877 32.4449L21.4596 23.8625L18.12 20.5229L12.877 25.7659Z" fill="white"/>
    <path d="M48.1414 37.4966H25.223V42.2194H48.1414V37.4966Z" fill="white"/>
    <path d="M48.1414 49.2686H25.223V53.9914H48.1414V49.2686Z" fill="white"/>
</svg>
