<svg width="67" height="61" viewBox="0 0 67 61" fill="none" xmlns="http://www.w3.org/2000/svg">
    <path d="M2.28528 51.037V47.99C2.28528 36.2104 11.8345 26.6611 23.6141 26.6611" stroke="white" stroke-width="4.57047" stroke-linecap="round" stroke-linejoin="round"/>
    <path d="M44.3451 27.6163C46.3007 25.4691 49.6792 25.4691 51.6347 27.6163C52.6232 28.7016 54.0437 29.29 55.5099 29.2214C58.4109 29.0858 60.8001 31.475 60.6645 34.376C60.5959 35.8422 61.1843 37.2627 62.2696 38.2511C64.4168 40.2067 64.4168 43.5852 62.2696 45.5407C61.1843 46.5292 60.5959 47.9497 60.6645 49.4159C60.8001 52.3169 58.4109 54.7061 55.5099 54.5705C54.0437 54.5019 52.6232 55.0903 51.6347 56.1756C49.6792 58.3228 46.3007 58.3228 44.3451 56.1756C43.3567 55.0903 41.9362 54.5019 40.47 54.5705C37.569 54.7061 35.1798 52.3169 35.3154 49.4159C35.384 47.9497 34.7956 46.5292 33.7103 45.5407C31.5631 43.5852 31.5631 40.2067 33.7103 38.2511C34.7956 37.2627 35.384 35.8422 35.3154 34.376C35.1798 31.475 37.569 29.0858 40.47 29.2214C41.9362 29.29 43.3567 28.7016 44.3451 27.6163Z" stroke="white" stroke-width="4.57047"/>
    <path d="M43.0039 41.8957L46.3282 45.2197L52.9761 38.5718" stroke="white" stroke-width="4.57047" stroke-linecap="round" stroke-linejoin="round"/>
    <path d="M23.6142 26.661C30.3453 26.661 35.8021 21.2042 35.8021 14.4731C35.8021 7.74187 30.3453 2.28516 23.6142 2.28516C16.883 2.28516 11.4263 7.74187 11.4263 14.4731C11.4263 21.2042 16.883 26.661 23.6142 26.661Z" stroke="white" stroke-width="4.57047" stroke-linecap="round" stroke-linejoin="round"/>
</svg>
